<?xml version="1.0" standalone="no"?>
<!DOCTYPE svg PUBLIC "-//W3C//DTD SVG 20010904//EN"
 "http://www.w3.org/TR/2001/REC-SVG-20010904/DTD/svg10.dtd">
<svg version="1.0" xmlns="http://www.w3.org/2000/svg"
 width="1600.000000pt" height="1600.000000pt" viewBox="0 0 1600.000000 1600.000000"
 preserveAspectRatio="xMidYMid meet">
<metadata>
Created by potrace 1.11, written by Peter Selinger 2001-2013
</metadata>
<g transform="translate(0.000000,1600.000000) scale(0.100000,-0.100000)"
fill="#000000" stroke="none">
<path d="M9178 15995 c-1 -1 -41 -6 -88 -9 -47 -4 -98 -9 -115 -11 -16 -2 -50
-7 -75 -10 -25 -3 -54 -8 -65 -9 -11 -2 -40 -7 -65 -10 -108 -17 -374 -83
-485 -121 -585 -198 -1075 -504 -1515 -945 -162 -162 -202 -205 -306 -330 -49
-59 -195 -257 -261 -353 -52 -75 -53 -76 -85 -67 -18 5 -51 11 -73 14 -22 3
-62 12 -90 18 -58 15 -400 18 -510 5 -38 -5 -90 -11 -115 -13 -56 -6 -317 -59
-390 -79 -30 -9 -64 -18 -74 -20 -57 -13 -275 -93 -381 -140 -105 -47 -324
-161 -335 -175 -3 -4 -13 -9 -23 -13 -14 -5 -195 -124 -242 -159 -501 -373
-911 -913 -1138 -1498 -38 -98 -79 -213 -82 -230 -3 -18 -29 -86 -35 -93 -4
-5 -37 -11 -71 -13 -76 -4 -166 -13 -194 -19 -11 -2 -42 -7 -70 -10 -27 -3
-70 -11 -95 -17 -25 -6 -54 -12 -65 -14 -59 -9 -141 -33 -300 -86 -220 -74
-450 -189 -650 -327 -240 -164 -479 -394 -643 -616 -28 -38 -55 -74 -59 -80
-66 -85 -185 -297 -256 -455 -59 -131 -113 -293 -153 -455 -29 -122 -37 -167
-63 -380 -9 -69 -7 -491 2 -530 3 -11 8 -47 11 -80 4 -33 9 -67 11 -75 2 -8 7
-31 10 -50 5 -30 22 -107 42 -190 3 -14 7 -29 8 -35 6 -26 47 -154 59 -185 8
-19 31 -78 52 -130 70 -177 212 -430 318 -570 101 -133 117 -152 158 -197 23
-27 81 -86 128 -133 77 -77 120 -116 230 -207 57 -48 199 -146 280 -194 42
-24 89 -52 105 -62 17 -10 59 -31 95 -48 36 -17 81 -38 100 -48 107 -55 446
-164 575 -185 17 -3 68 -12 115 -20 47 -8 128 -18 180 -22 121 -11 10074 -11
10196 -1 50 4 102 9 115 12 13 2 49 6 79 10 58 7 73 10 130 20 19 4 46 9 60
11 87 16 346 84 400 107 14 5 32 11 41 13 84 17 500 212 634 298 179 115 358
245 460 335 76 68 331 326 360 366 17 22 38 49 49 60 43 46 256 345 256 360 0
1 19 34 42 71 65 107 181 355 237 506 80 213 156 518 177 700 3 29 7 64 10 78
24 146 24 607 0 760 -5 27 -18 116 -21 140 -3 19 -23 127 -31 160 -3 14 -7 36
-10 50 -3 14 -7 33 -10 42 -3 9 -6 25 -8 35 -7 32 -46 155 -88 273 -126 356
-328 705 -579 1001 -84 100 -295 308 -399 395 -266 221 -586 413 -905 544 -44
18 -89 36 -100 41 -19 7 -211 69 -264 84 -25 8 -27 8 -79 20 -40 9 -41 12 -81
182 -87 369 -267 806 -464 1128 -31 51 -190 291 -196 295 -3 3 -33 41 -66 84
-94 123 -97 127 -150 186 -271 297 -494 493 -785 687 -488 325 -1095 547
-1670 609 -25 2 -67 7 -95 10 -55 6 -551 14 -557 9z m139 -1211 c-3 -3 -12 -4
-19 -1 -8 3 -5 6 6 6 11 1 17 -2 13 -5z m136 -1 c-24 -2 -62 -2 -85 0 -24 2
-5 4 42 4 47 0 66 -2 43 -4z m-296 -9 c-3 -3 -12 -4 -19 -1 -8 3 -5 6 6 6 11
1 17 -2 13 -5z m730 -30 c-3 -3 -12 -4 -19 -1 -8 3 -5 6 6 6 11 1 17 -2 13 -5z
m-1717 -248 c0 -2 -7 -7 -16 -10 -8 -3 -12 -2 -9 4 6 10 25 14 25 6z m3034
-395 c-2 -3 -12 3 -22 13 -16 17 -16 18 5 5 12 -7 20 -15 17 -18z m-3644 -24
c0 -2 -12 -14 -27 -28 l-28 -24 24 28 c23 25 31 32 31 24z m3765 -87 c10 -11
16 -20 13 -20 -3 0 -13 9 -23 20 -10 11 -16 20 -13 20 3 0 13 -9 23 -20z
m-3905 -53 c0 -2 -12 -14 -27 -28 l-28 -24 24 28 c23 25 31 32 31 24z m4035
-87 c10 -11 16 -20 13 -20 -3 0 -13 9 -23 20 -10 11 -16 20 -13 20 3 0 13 -9
23 -20z m79 -96 c3 -8 2 -12 -4 -9 -6 3 -10 10 -10 16 0 14 7 11 14 -7z m194
-289 c-3 -3 -9 2 -12 12 -6 14 -5 15 5 6 7 -7 10 -15 7 -18z m-6050 -502 c-10
-2 -26 -2 -35 0 -10 3 -2 5 17 5 19 0 27 -2 18 -5z m189 1 c-3 -3 -12 -4 -19
-1 -8 3 -5 6 6 6 11 1 17 -2 13 -5z m220 -20 c-3 -3 -12 -4 -19 -1 -8 3 -5 6
6 6 11 1 17 -2 13 -5z m-750 -20 c-3 -3 -12 -4 -19 -1 -8 3 -5 6 6 6 11 1 17
-2 13 -5z m-947 -457 c0 -2 -10 -12 -22 -23 l-23 -19 19 23 c18 21 26 27 26
19z m7697 -39 c-3 -8 -6 -5 -6 6 -1 11 2 17 5 13 3 -3 4 -12 1 -19z m-7897
-161 c0 -2 -10 -12 -22 -23 l-23 -19 19 23 c18 21 26 27 26 19z m7917 -19 c-3
-8 -6 -5 -6 6 -1 11 2 17 5 13 3 -3 4 -12 1 -19z m40 -360 c-3 -8 -6 -5 -6 6
-1 11 2 17 5 13 3 -3 4 -12 1 -19z m280 -134 c-3 -3 -12 -4 -19 -1 -8 3 -5 6
6 6 11 1 17 -2 13 -5z m260 -20 c-3 -3 -12 -4 -19 -1 -8 3 -5 6 6 6 11 1 17
-2 13 -5z m130 -20 c-3 -3 -12 -4 -19 -1 -8 3 -5 6 6 6 11 1 17 -2 13 -5z
m1008 -484 c10 -11 16 -20 13 -20 -3 0 -13 9 -23 20 -10 11 -16 20 -13 20 3 0
13 -9 23 -20z m-10168 -202 c-3 -7 -5 -2 -5 12 0 14 2 19 5 13 2 -7 2 -19 0
-25z m10434 -75 c13 -16 12 -17 -3 -4 -17 13 -22 21 -14 21 2 0 10 -8 17 -17z
m-10454 -135 c-3 -8 -6 -5 -6 6 -1 11 2 17 5 13 3 -3 4 -12 1 -19z m-10 -130
c-3 -8 -6 -5 -6 6 -1 11 2 17 5 13 3 -3 4 -12 1 -19z m-1054 -155 c-7 -2 -19
-2 -25 0 -7 3 -2 5 12 5 14 0 19 -2 13 -5z m324 1 c-3 -3 -12 -4 -19 -1 -8 3
-5 6 6 6 11 1 17 -2 13 -5z m70 -10 c-3 -3 -12 -4 -19 -1 -8 3 -5 6 6 6 11 1
17 -2 13 -5z m-1147 -278 c0 -2 -8 -10 -17 -17 -16 -13 -17 -12 -4 4 13 16 21
21 21 13z m-50 -40 c0 -2 -8 -10 -17 -17 -16 -13 -17 -12 -4 4 13 16 21 21 21
13z m-190 -190 c0 -2 -8 -10 -17 -17 -16 -13 -17 -12 -4 4 13 16 21 21 21 13z
m12947 -98 c-3 -8 -6 -5 -6 6 -1 11 2 17 5 13 3 -3 4 -12 1 -19z m20 -280 c-3
-8 -6 -5 -6 6 -1 11 2 17 5 13 3 -3 4 -12 1 -19z m-13320 -430 c-3 -8 -6 -5
-6 6 -1 11 2 17 5 13 3 -3 4 -12 1 -19z m-10 -205 c-2 -21 -4 -6 -4 32 0 39 2
55 4 38 2 -18 2 -50 0 -70z m10 -165 c-3 -8 -6 -5 -6 6 -1 11 2 17 5 13 3 -3
4 -12 1 -19z m12763 -641 c0 -1 -26 -27 -57 -57 l-58 -55 55 58 c50 53 60 62
60 54z m-180 -170 c0 -2 -10 -12 -22 -23 l-23 -19 19 23 c18 21 26 27 26 19z
m-12059 -154 c13 -16 12 -17 -3 -4 -17 13 -22 21 -14 21 2 0 10 -8 17 -17z
m11814 -33 c-3 -5 -12 -10 -18 -10 -7 0 -6 4 3 10 19 12 23 12 15 0z m-778
-296 c-3 -3 -12 -4 -19 -1 -8 3 -5 6 6 6 11 1 17 -2 13 -5z"/>
<path d="M12634 5754 c-38 -19 -114 -55 -169 -81 -102 -47 -198 -90 -295 -135
-155 -72 -230 -106 -280 -129 -217 -96 -675 -335 -834 -435 -465 -294 -644
-508 -736 -884 -17 -71 -21 -107 -25 -220 -8 -279 86 -558 261 -770 48 -58
157 -161 199 -189 22 -14 48 -33 57 -41 40 -35 279 -143 308 -139 3 0 18 -5
34 -11 16 -6 45 -13 65 -15 20 -3 47 -7 61 -10 30 -7 257 -8 268 -2 4 3 30 8
57 11 110 15 286 79 410 150 39 22 72 42 75 46 3 3 19 14 35 24 70 44 208 173
263 246 15 19 32 40 38 45 72 64 192 345 220 515 3 14 9 48 14 75 12 66 18
107 25 185 3 36 8 79 10 95 14 105 19 405 17 1009 -1 379 -4 691 -5 692 -2 2
-34 -12 -73 -32z"/>
<path d="M4175 5162 c-16 -10 -79 -41 -140 -69 -60 -28 -150 -70 -200 -94 -49
-23 -92 -43 -95 -44 -14 -5 -63 -27 -135 -60 -44 -21 -109 -51 -145 -67 -155
-71 -206 -96 -390 -188 -107 -53 -235 -120 -284 -149 -49 -28 -91 -51 -94 -51
-7 0 -173 -105 -265 -167 -386 -262 -561 -523 -612 -911 -11 -77 -5 -259 10
-332 3 -14 8 -37 10 -51 10 -55 48 -166 82 -239 158 -341 477 -583 853 -648
49 -8 255 -8 315 1 78 11 213 45 245 62 17 9 30 13 30 10 0 -3 47 19 104 48
270 139 491 360 600 599 31 70 78 216 90 278 2 14 9 45 15 70 10 44 13 68 26
180 4 30 8 65 10 78 21 134 30 1752 10 1759 -5 1 -23 -5 -40 -15z"/>
<path d="M8347 3310 c-53 -27 -141 -69 -195 -93 -101 -47 -152 -70 -337 -155
-268 -122 -556 -263 -730 -357 -131 -70 -309 -177 -313 -187 -2 -4 -8 -8 -14
-8 -16 0 -209 -137 -288 -205 -79 -68 -179 -177 -226 -247 -64 -95 -127 -238
-160 -364 -33 -127 -41 -344 -18 -474 76 -423 365 -765 764 -900 277 -94 581
-69 867 71 245 120 463 326 579 544 72 135 137 364 158 555 4 30 9 71 11 90 5
38 15 180 21 305 4 80 5 977 1 1299 -1 103 -6 170 -12 172 -5 1 -54 -19 -108
-46z"/>
</g>
</svg>
